<?xml version="1.0" standalone="no"?>
<!DOCTYPE svg PUBLIC "-//W3C//DTD SVG 20010904//EN"
 "http://www.w3.org/TR/2001/REC-SVG-20010904/DTD/svg10.dtd">
<svg version="1.0" xmlns="http://www.w3.org/2000/svg"
 width="513.000000pt" height="513.000000pt" viewBox="0 0 513.000000 513.000000"
 preserveAspectRatio="xMidYMid meet">

<g transform="translate(0.000000,513.000000) scale(0.100000,-0.100000)"
fill="#000000" stroke="none">
<path d="M397 5102 c-47 -4 -48 1 40 -146 89 -148 127 -202 277 -396 152 -195
264 -347 281 -379 11 -22 15 -46 12 -67 -13 -80 -164 -250 -296 -334 -39 -25
-71 -49 -71 -54 0 -15 92 -138 181 -241 95 -110 279 -291 406 -400 l81 -70 11
-71 12 -71 129 -136 c72 -75 130 -140 130 -145 0 -4 -20 -25 -45 -46 -25 -22
-45 -45 -45 -52 0 -10 -6 -11 -26 -4 -14 6 -31 10 -38 10 -14 0 -36 -70 -36
-114 0 -22 -5 -25 -47 -31 -27 -4 -68 -13 -92 -21 -25 -8 -45 -13 -46 -11 0 1
-9 14 -18 29 -23 36 -22 45 9 81 35 41 84 141 84 171 0 27 -15 34 -215 102
-165 57 -254 77 -272 62 -25 -20 -130 -151 -183 -229 -56 -82 -57 -75 22 -192
27 -39 35 -59 26 -61 -7 -3 -67 -18 -133 -34 -66 -17 -133 -35 -149 -41 l-29
-12 7 -206 c7 -232 11 -242 75 -244 20 0 45 -4 55 -8 16 -6 8 -12 -37 -30 -31
-13 -61 -29 -67 -36 -11 -13 13 -117 67 -292 23 -76 27 -83 61 -96 98 -39 252
-65 389 -66 l61 -1 64 -86 63 -86 43 6 c24 3 88 28 141 55 l97 48 90 -13 c134
-20 128 -22 174 48 22 34 52 87 66 117 19 41 45 71 92 110 l65 54 -8 -39 c-4
-21 -13 -76 -19 -122 -12 -74 -11 -84 3 -91 29 -15 292 -101 342 -112 27 -6
49 -14 49 -19 0 -13 -91 -85 -132 -103 -20 -9 -45 -17 -57 -17 -18 0 -21 -6
-21 -40 0 -21 -5 -62 -11 -90 -10 -47 -14 -52 -62 -77 -59 -29 -249 -156 -267
-178 -12 -15 -8 -20 57 -70 18 -15 30 -32 28 -43 -2 -9 -9 -43 -16 -74 -10
-46 -10 -60 1 -73 10 -13 8 -22 -15 -55 -31 -44 -28 -53 23 -79 123 -62 339
-104 807 -158 192 -21 703 -24 845 -5 74 11 113 11 175 3 l80 -12 23 28 c12
15 28 40 35 56 14 32 12 32 107 6 41 -11 82 -21 90 -22 10 -1 31 31 62 93 29
58 52 94 60 91 25 -7 69 -2 82 8 7 6 16 8 19 5 9 -9 281 47 288 59 4 5 16 6
28 2 12 -4 34 0 53 9 17 9 48 16 69 16 21 0 41 5 44 10 4 6 14 10 23 9 10 -1
30 3 45 9 16 7 47 12 70 12 54 0 181 26 229 47 44 19 55 51 33 95 -8 17 -15
37 -15 45 0 8 -30 109 -67 224 -45 140 -72 209 -81 209 -9 0 -12 -6 -8 -16 4
-9 11 -37 18 -63 6 -25 17 -58 25 -73 7 -16 11 -28 8 -28 -2 0 8 -35 23 -78
16 -42 39 -117 52 -165 21 -79 22 -90 8 -103 -14 -14 -113 -38 -263 -64 -33
-6 -69 -14 -80 -19 -11 -5 -60 -15 -108 -21 -58 -8 -90 -17 -94 -26 -3 -9 -13
-12 -23 -9 -16 5 -206 -28 -240 -41 -8 -4 -26 -7 -40 -9 -47 -4 -175 -27 -255
-45 -102 -24 -134 -30 -165 -35 -14 -2 -63 -11 -110 -20 -47 -9 -98 -18 -115
-21 -16 -2 -57 -10 -90 -19 -164 -40 -277 -57 -300 -47 -25 12 -40 51 -49 132
-3 25 -12 81 -20 125 -8 44 -18 98 -21 120 -3 22 -9 63 -14 90 -13 68 -13 78
2 98 11 16 87 39 170 52 17 3 95 16 172 30 77 14 154 28 170 31 17 2 44 9 61
15 18 5 36 9 40 8 22 -4 34 2 34 19 0 13 2 14 9 3 7 -11 20 -12 72 -2 35 6 65
15 67 19 1 5 15 7 31 4 31 -4 229 33 276 52 17 7 35 11 42 9 15 -5 235 35 288
52 22 8 63 17 90 20 92 12 98 14 105 25 4 6 49 12 111 15 60 2 105 8 107 14 6
19 -22 38 -54 35 -45 -3 -198 -33 -278 -55 -38 -10 -71 -18 -72 -16 -1 1 -4
41 -6 88 -2 62 1 91 11 102 7 9 17 33 21 54 9 38 4 50 -75 188 -38 66 -49 114
-36 163 13 45 23 51 48 27 8 -9 23 -13 33 -10 11 3 20 -1 24 -11 5 -14 4 -15
-9 -4 -19 16 -19 11 2 -31 l18 -34 3 27 c2 15 -5 44 -14 64 -30 63 -152 102
-374 120 -99 8 -96 21 5 23 49 2 49 2 25 16 -14 8 -34 14 -45 14 l-20 0 20 -9
c19 -8 19 -9 -2 -9 -14 -1 -23 5 -23 14 0 20 -15 19 -96 -6 -71 -22 -172 -69
-240 -112 -22 -13 -73 -34 -114 -46 -175 -52 -315 -170 -390 -327 -23 -49 -55
-114 -71 -145 -51 -99 -101 -257 -94 -298 9 -56 25 -74 25 -30 0 68 44 159 75
159 7 0 15 -20 19 -47 4 -27 17 -74 30 -105 25 -60 18 -80 -9 -28 -20 39 -25
38 -18 -5 5 -31 -3 -44 -21 -32 -2 1 -13 -7 -25 -17 -20 -18 -22 -18 -40 -2
-17 16 -49 19 -252 23 -222 5 -234 7 -251 27 -9 11 -17 24 -18 29 0 4 61 7
135 7 150 0 156 3 138 63 l-9 32 -127 3 c-130 3 -140 6 -117 42 7 12 43 16
190 18 l180 4 0 -41 c0 -40 1 -41 33 -41 31 0 57 14 57 32 0 4 -12 8 -26 8
-27 0 -27 0 -21 60 9 87 42 137 112 172 47 24 51 29 59 78 3 21 13 43 22 50
21 19 47 70 34 70 -5 0 -10 5 -10 11 0 6 7 9 15 5 9 -3 15 0 15 9 0 8 -13 15
-32 18 l-33 4 33 1 c35 2 34 2 32 79 -1 29 3 53 7 53 5 0 10 -24 10 -53 1 -28
2 -59 3 -67 1 -21 70 55 70 77 1 34 26 54 64 51 42 -3 61 12 51 41 -6 20 -13
21 -125 21 -91 0 -122 -3 -133 -15 -13 -13 -16 -13 -21 0 -9 24 24 33 150 41
130 7 164 0 164 -36 0 -23 9 -25 34 -7 18 13 18 17 2 89 -32 143 -109 360
-194 541 -34 72 -42 101 -34 109 14 14 28 -3 109 -121 31 -46 59 -79 61 -72 5
14 -35 83 -54 94 -8 4 -14 13 -14 18 0 6 -11 25 -25 43 -29 39 -25 47 18 35
237 -61 286 -79 319 -116 41 -46 151 -262 183 -362 15 -44 31 -81 36 -81 14 0
12 12 -20 104 -24 71 -104 230 -170 336 l-15 25 23 -20 c35 -30 151 -211 182
-286 16 -36 31 -84 35 -107 8 -51 28 -44 21 8 -9 68 -130 291 -200 368 -38 41
-2 23 39 -20 101 -106 158 -202 190 -315 9 -35 21 -63 26 -63 11 0 10 9 -8 71
-23 76 -75 175 -125 239 -54 69 -136 148 -160 155 -11 4 -19 10 -19 15 0 14
177 167 200 173 23 6 177 -66 275 -128 205 -129 435 -301 459 -342 12 -22 1
-85 -35 -193 -39 -117 -138 -316 -173 -349 -31 -29 -32 -37 -7 -74 l19 -29 32
45 c29 41 132 117 216 160 60 31 60 36 14 156 l-42 109 30 94 c16 51 27 98 25
105 -3 6 -40 37 -83 69 l-78 58 5 91 c6 104 11 98 -92 140 -93 38 -96 40 -90
84 3 20 7 62 8 93 3 57 3 57 -32 71 -20 8 -76 27 -126 42 -49 15 -94 30 -98
35 -5 4 -11 41 -14 81 -4 59 -9 77 -25 88 -45 32 -268 115 -503 188 l-60 18
-12 266 c-7 146 -16 288 -20 315 l-8 49 -69 12 c-38 7 -71 14 -73 17 -2 2 -8
32 -14 67 -12 76 -25 92 -179 216 -58 47 -108 92 -112 102 -4 9 -7 40 -7 68
-1 52 -1 53 -48 77 -97 49 -123 77 -182 192 l-56 109 -114 3 -114 3 -86 58
c-47 31 -115 78 -151 103 -64 45 -67 46 -110 37 -25 -5 -122 -36 -217 -67
l-172 -58 -108 58 c-270 145 -656 270 -1023 332 -162 28 -217 33 -273 28z
m362 -122 c183 -24 298 -52 486 -118 276 -97 698 -297 930 -442 33 -20 103
-62 155 -94 52 -31 163 -103 245 -161 425 -296 634 -421 735 -441 21 -5 39
-18 52 -38 20 -32 20 -34 3 -176 -8 -61 -33 -129 -48 -126 -10 2 -134 59 -190
88 -18 9 -18 5 -12 -59 4 -37 10 -81 15 -98 5 -16 12 -50 15 -75 4 -25 10 -65
15 -90 5 -25 7 -46 6 -47 -1 -1 -64 25 -141 58 -280 120 -604 239 -650 239
-23 -1 81 -39 107 -40 9 0 23 -6 30 -12 7 -7 24 -15 38 -16 14 -2 31 -9 38
-15 8 -6 23 -12 34 -14 10 -2 38 -11 61 -21 23 -11 57 -25 74 -32 18 -7 30
-17 26 -23 -4 -6 -1 -7 6 -2 14 8 288 -127 322 -158 10 -10 19 -24 19 -32 0
-17 -13 -11 -155 58 -49 24 -100 48 -113 51 -12 4 -20 11 -18 15 3 4 -3 7 -12
8 -17 1 -82 24 -137 48 -16 7 -77 30 -135 50 -58 21 -109 41 -115 45 -5 4 -44
17 -85 30 -41 13 -77 26 -80 29 -3 3 -9 6 -15 7 -16 0 -131 33 -320 89 -91 27
-290 75 -415 100 -47 9 -112 23 -145 30 -87 20 -280 52 -352 60 -77 7 -133 -2
-133 -22 0 -19 46 -99 83 -143 66 -79 289 -298 322 -316 19 -10 35 -24 35 -31
0 -29 -29 -13 -163 95 -107 85 -120 99 -113 111 4 6 1 9 -7 5 -9 -3 -25 10
-43 35 -16 22 -33 41 -39 41 -13 1 -112 119 -146 173 -14 23 -29 54 -32 68 -6
22 -3 28 16 33 84 22 514 -17 751 -70 82 -18 99 -12 24 9 -187 52 -527 105
-688 106 l-74 1 45 48 c111 115 199 261 199 329 0 75 -201 427 -417 730 -57
79 -103 146 -103 148 0 3 12 2 28 0 15 -3 96 -14 181 -25z m-74 -205 c136
-195 282 -431 272 -441 -12 -12 -261 359 -314 468 -41 86 -32 79 42 -27z
m1619 -80 c39 -24 91 -62 116 -83 l44 -39 -74 -22 c-41 -12 -100 -30 -130 -41
-75 -25 -29 -26 77 0 100 24 200 36 310 39 l82 2 23 -38 c13 -21 55 -104 93
-184 68 -143 93 -176 61 -82 -9 26 -16 48 -16 50 0 10 19 -1 48 -27 30 -28 34
-41 62 -180 17 -83 35 -162 41 -177 13 -36 7 -38 -38 -11 -21 13 -47 28 -57
33 -12 7 -29 44 -46 100 -42 140 -98 260 -181 387 l-24 38 -87 0 c-81 0 -268
-29 -324 -50 -19 -7 -31 -6 -50 7 -14 9 -38 23 -54 32 -16 9 -66 39 -112 66
-46 28 -109 63 -141 79 -32 16 -54 33 -50 37 21 21 282 104 342 108 7 1 45
-19 85 -44z m877 -721 c78 -77 89 -92 95 -131 3 -24 4 -47 0 -50 -3 -3 -30 -1
-60 6 -56 12 -132 68 -138 101 -2 8 -6 17 -10 20 -9 7 -27 122 -21 133 14 23
53 0 134 -79z m258 -434 c1 -53 -25 -165 -48 -209 -7 -11 -9 -21 -7 -21 9 0
49 83 66 139 l17 54 7 -37 c12 -62 4 -197 -16 -283 -16 -69 -27 -90 -66 -136
-123 -144 -176 -222 -231 -342 -52 -114 -60 -133 -66 -158 -8 -32 -18 -34 -44
-8 -27 27 -41 83 -41 162 0 54 4 69 21 85 20 18 54 74 45 74 -2 0 -27 -29 -55
-64 -50 -62 -51 -65 -51 -131 0 -49 -3 -66 -12 -63 -9 3 -14 31 -16 82 l-3 78
68 75 c204 226 281 349 352 561 17 52 37 134 43 184 l13 91 12 -39 c6 -21 12
-64 12 -94z m-252 -112 c43 -25 104 -74 116 -94 4 -7 -16 2 -45 21 -29 20 -61
38 -70 41 -10 3 -18 10 -18 15 0 6 -4 8 -8 5 -13 -8 -35 11 -28 23 9 14 9 15
53 -11z m40 -120 c18 -13 36 -33 39 -44 7 -25 -32 -108 -46 -99 -5 3 -7 0 -4
-8 3 -8 1 -17 -3 -20 -8 -5 -53 150 -53 182 0 18 31 13 67 -11z m-1041 -287
c46 -46 84 -86 84 -90 0 -3 82 -3 182 0 160 5 194 9 267 32 113 36 124 35 116
-4 -4 -16 -17 -56 -30 -87 -13 -31 -21 -59 -18 -62 3 -3 8 1 10 8 9 24 46 53
56 43 15 -15 27 -108 21 -155 -6 -43 -61 -166 -91 -202 -48 -58 -274 -222
-400 -290 l-72 -39 -48 18 c-125 46 -383 249 -451 354 -17 26 -35 53 -39 59
-25 32 -35 58 -25 62 6 2 1 23 -13 55 -13 28 -23 53 -21 54 2 2 16 5 32 7 16
3 55 16 87 30 32 14 72 27 90 29 l32 2 -4 -62 c-2 -46 1 -64 10 -67 33 -10
199 -46 213 -46 16 0 116 135 116 157 0 9 -11 8 -42 -6 -39 -16 -144 -51 -175
-57 -6 -1 -28 -7 -48 -14 -20 -7 -39 -9 -42 -6 -12 11 3 256 23 404 l6 42 45
-42 c25 -24 83 -81 129 -127z m-707 22 c6 -21 14 -65 20 -98 10 -62 17 -80 64
-152 38 -60 219 -282 266 -328 37 -36 39 -41 24 -57 -8 -10 -20 -15 -26 -11
-6 3 -7 1 -3 -6 10 -15 -62 -91 -79 -84 -9 3 -1 28 25 81 l38 77 -61 65 c-34
36 -80 87 -102 114 -22 27 -48 56 -57 65 -10 8 -18 20 -18 26 0 5 -12 21 -26
34 -35 34 -79 99 -92 140 -18 51 -16 171 3 171 8 0 18 -16 24 -37z m-15 -204
c17 -24 41 -56 55 -71 13 -15 22 -30 20 -32 -3 -3 -30 23 -60 57 -57 63 -85
122 -76 158 3 10 1 19 -4 19 -5 0 -9 19 -8 43 1 37 3 32 22 -44 13 -50 35
-105 51 -130z m2186 180 c74 -12 249 -78 299 -114 l33 -23 -41 -28 c-40 -26
-56 -49 -26 -38 8 4 15 9 15 13 0 11 47 31 70 31 11 0 20 -2 20 -4 0 -2 3 -12
7 -21 5 -16 3 -16 -23 1 -15 11 -25 14 -21 7 8 -12 -25 -36 -37 -28 -3 3 -4 2
-1 -2 6 -8 -127 -148 -138 -145 -5 1 -6 -1 -3 -6 3 -5 -17 -40 -44 -78 -28
-37 -50 -73 -50 -79 0 -5 -4 -4 -9 4 -10 16 16 90 39 108 8 7 11 13 7 13 -5 0
6 18 23 40 46 58 31 60 -20 3 -23 -26 -46 -47 -51 -45 -5 1 -8 -3 -7 -9 2 -6
-3 -14 -9 -16 -7 -3 -13 2 -13 11 0 9 -4 16 -10 16 -5 0 -8 -15 -6 -32 9 -69
18 -268 13 -268 -3 0 -17 4 -30 9 -20 8 -24 15 -19 37 6 31 -17 194 -27 194
-4 0 -8 -15 -9 -34 -3 -39 -35 -118 -54 -133 -8 -6 -29 -6 -55 -1 -42 9 -43
10 -44 51 -1 23 -1 62 0 87 2 34 -1 41 -8 30 -6 -8 -11 -25 -11 -37 0 -21 -28
-103 -35 -103 -19 0 -35 17 -36 39 0 26 0 26 -11 4 -6 -13 -18 -23 -26 -23 -9
0 -24 -8 -34 -17 -15 -14 -21 -14 -27 -4 -5 7 -11 12 -15 12 -22 -3 -26 3 -26
34 0 19 11 64 24 100 13 36 22 65 20 65 -2 0 -26 -34 -54 -75 -28 -41 -57 -75
-65 -75 -19 0 -19 4 0 40 9 17 16 33 17 37 5 27 11 43 17 43 4 0 8 6 8 13 1
24 40 97 48 89 5 -4 5 -2 1 5 -5 10 26 77 44 93 3 3 17 28 32 55 15 28 33 50
40 50 7 0 14 6 14 13 1 6 2 17 3 22 0 6 8 10 16 10 8 0 15 3 15 8 0 9 77 50
105 56 38 7 100 6 165 -5z m-620 -72 c0 -12 -14 -37 -30 -56 l-30 -34 1 76 1
77 29 -21 c17 -12 29 -29 29 -42z m-2028 -278 c50 -17 116 -42 145 -54 45 -20
53 -28 53 -51 0 -32 -63 -120 -113 -158 -40 -31 -87 -33 -204 -11 -66 12 -83
20 -109 48 -17 19 -33 40 -36 48 -3 8 -8 11 -12 8 -4 -4 3 -28 15 -54 15 -32
32 -52 53 -61 l31 -13 -27 -1 c-15 0 -29 -4 -33 -9 -7 -13 34 -19 164 -25 57
-3 105 -7 108 -9 8 -9 -113 -127 -130 -127 -50 0 -154 98 -206 191 l-30 57 46
92 c26 50 63 110 82 132 32 37 37 40 72 34 21 -3 80 -20 131 -37z m3046 20 c2
-5 7 -7 12 -4 6 4 208 -61 218 -70 1 -1 -20 -17 -48 -35 l-50 -32 -67 21 c-94
29 -149 62 -145 87 6 32 33 55 56 48 12 -4 23 -11 24 -15z m-131 -73 c21 -8
84 -29 141 -46 100 -31 102 -33 86 -51 -11 -13 -25 -17 -38 -13 -49 14 -162
59 -176 70 -8 6 -30 15 -47 19 -32 6 -40 15 -26 28 9 10 18 9 60 -7z m402 -61
c-2 -38 -6 -44 -20 -40 -20 7 -86 -26 -123 -60 -21 -20 -27 -21 -43 -10 -17
12 -15 16 23 52 22 21 53 45 70 53 16 8 31 18 34 21 7 9 44 28 53 29 4 0 7
-20 6 -45z m-2615 -47 c-4 -6 -3 -8 3 -5 6 4 22 -4 37 -16 l27 -23 -19 -42
c-10 -23 -22 -39 -27 -34 -5 4 -5 2 -2 -5 9 -14 -2 -43 -16 -43 -6 0 -28 12
-50 27 -44 30 -44 41 -11 152 l16 54 24 -27 c14 -14 22 -31 18 -38z m1286 22
c22 -11 59 -33 83 -48 l44 -27 -16 -45 c-9 -24 -35 -64 -57 -88 l-41 -43 -39
22 c-42 24 -130 103 -145 131 -7 13 3 27 52 67 33 28 65 51 70 51 6 0 28 -9
49 -20z m906 12 c6 -4 -9 -20 -38 -39 -44 -29 -48 -30 -48 -12 0 36 19 59 48
59 15 0 32 -4 38 -8z m-2288 -69 c-6 -29 -15 -53 -19 -53 -5 0 -9 6 -9 13 0 6
-3 21 -6 32 -4 17 32 73 41 63 2 -2 -2 -27 -7 -55z m1605 -92 c44 -42 101
-145 94 -172 -3 -11 -1 -22 4 -25 5 -3 9 -16 9 -29 0 -29 0 -29 -152 68 -107
69 -107 69 -92 93 9 13 21 21 27 17 5 -3 7 -1 4 4 -4 6 3 31 15 56 25 51 23
51 91 -12z m-387 4 c15 -25 31 -45 35 -45 12 0 109 -101 109 -114 0 -25 -40
-64 -82 -81 -123 -50 -217 -57 -285 -23 -101 51 -117 92 -53 136 23 15 71 50
108 77 114 84 127 94 133 94 3 1 19 -19 35 -44z m-1200 -26 c117 -91 164 -139
164 -169 0 -14 -12 -51 -27 -81 -30 -60 -136 -223 -166 -254 -11 -11 -26 -30
-34 -42 -8 -13 -19 -20 -24 -17 -5 3 -8 1 -7 -4 7 -21 -157 -173 -224 -208
-17 -9 -54 -16 -81 -16 -61 0 -49 -18 17 -25 l46 -6 -6 -41 c-4 -22 -11 -48
-15 -58 -9 -16 -74 -35 -154 -44 -22 -3 -46 -7 -53 -9 -28 -10 -68 7 -69 28
-1 12 -30 49 -66 84 -63 61 -65 64 -82 147 l-18 84 32 43 c56 80 107 279 77
304 -10 8 -10 16 -1 38 6 15 15 24 20 20 4 -5 5 -2 1 5 -7 11 6 37 87 167 16
27 28 34 44 28 8 -3 13 0 11 8 -2 7 4 14 12 16 9 2 25 -15 42 -45 51 -91 147
-168 227 -181 29 -5 35 -12 46 -46 12 -41 44 -99 51 -92 3 2 -3 23 -11 47 -18
51 -13 61 18 33 12 -11 32 -26 44 -32 27 -14 93 -15 93 -1 0 6 -10 10 -22 10
-29 1 -100 44 -90 55 4 4 2 5 -4 2 -7 -4 -16 -1 -22 6 -25 30 -41 232 -22 278
13 29 16 31 55 27 31 -4 59 -19 111 -59z m2769 17 c35 -18 37 -21 18 -24 -19
-3 -113 42 -113 54 0 8 55 -9 95 -30z m-71 -21 c16 -7 16 -9 2 -17 -17 -10
-45 1 -65 26 -11 13 -9 14 16 7 15 -5 36 -12 47 -16z m185 -40 c15 -16 14 -16
-6 -4 -18 11 -33 11 -84 0 -44 -9 -65 -9 -72 -2 -8 8 -5 11 9 12 25 1 78 10
82 13 8 9 57 -5 71 -19z m-2489 -13 c13 -8 36 -26 50 -39 14 -13 28 -23 33
-23 4 0 5 -5 1 -12 -5 -7 -3 -8 5 -3 8 4 23 -3 39 -18 36 -32 164 -107 185
-107 9 0 41 9 72 21 45 17 59 18 71 8 21 -17 113 -59 130 -59 7 0 21 -16 29
-36 18 -43 18 -47 5 -39 -5 3 -10 4 -10 0 0 -3 8 -9 18 -13 11 -4 49 -35 87
-69 l67 -63 -66 -66 c-36 -36 -66 -62 -66 -58 0 4 -14 -7 -31 -24 -17 -18 -36
-32 -41 -32 -5 0 -16 -7 -25 -15 -14 -14 -21 -10 -77 45 -59 58 -96 74 -121
52 -18 -16 -104 -44 -115 -37 -16 10 -41 65 -35 75 3 6 2 10 -3 10 -6 0 -13
11 -16 25 -13 50 -39 65 -116 65 -70 0 -70 0 -70 28 -1 62 -13 148 -21 158 -6
7 -26 15 -47 18 -78 14 -75 11 -69 88 6 66 5 69 -18 80 -19 9 -22 14 -14 24 6
8 15 11 20 8 5 -3 9 -1 9 4 0 32 92 34 140 4z m-603 -34 c0 -18 3 -50 7 -70
l8 -38 -43 0 c-24 1 -54 6 -66 13 -31 17 -105 88 -99 95 12 11 103 31 148 31
46 1 47 1 45 -31z m1749 -73 c49 -32 103 -65 121 -73 23 -11 33 -23 33 -39 0
-19 -5 -23 -31 -23 -39 0 -109 19 -129 36 -8 6 -41 25 -73 41 -31 16 -54 33
-50 38 5 4 3 5 -4 2 -6 -4 -18 -4 -27 -1 -12 5 -13 11 -6 24 6 10 10 29 10 41
0 19 4 21 34 16 18 -3 73 -31 122 -62z m1324 35 c13 -25 2 -25 -30 0 -25 19
-25 20 -3 20 12 0 27 -9 33 -20z m-3654 -55 c45 -41 53 -54 48 -73 -6 -21 -11
-23 -42 -17 -20 4 -47 19 -61 34 -36 39 -87 63 -124 59 -31 -3 -30 -4 21 -23
30 -11 58 -28 63 -37 11 -21 17 -20 -93 -22 -116 -1 -136 -21 -25 -23 109 -2
258 -21 274 -35 18 -14 8 -66 -27 -143 -38 -84 -55 -96 -137 -101 -62 -3 -248
20 -271 35 -11 7 -34 185 -28 216 3 11 5 43 5 71 l1 51 58 16 c71 19 224 44
265 43 10 0 43 -23 73 -51z m1029 -121 c10 -8 26 -14 36 -14 50 0 59 -93 25
-243 -13 -60 -26 -111 -29 -113 -2 -3 -7 19 -11 48 -4 29 -9 62 -12 73 -17 84
-22 103 -33 123 -6 12 -8 22 -4 22 4 0 4 4 -2 8 -12 9 -45 78 -45 95 0 7 10
33 22 58 l22 44 6 -44 c4 -25 15 -50 25 -57z m1175 50 c65 -34 64 -47 -3 -39
l-54 7 -50 -74 -50 -73 -50 0 c-57 1 -112 34 -138 85 -21 41 -14 44 149 76 17
3 50 14 75 24 61 24 64 24 121 -6z m87 -108 c76 -36 85 -55 67 -141 -8 -38
-24 -94 -35 -122 -19 -46 -25 -53 -49 -53 -40 0 -159 56 -197 92 -29 28 -32
36 -27 72 7 42 68 133 108 162 30 20 74 17 133 -10z m235 -2 c20 -10 39 -26
42 -34 2 -8 13 -40 24 -70 11 -30 22 -77 25 -103 4 -39 1 -49 -14 -58 -27 -14
-249 -25 -249 -12 0 6 8 37 19 69 18 59 34 195 20 172 -6 -9 -10 -8 -15 5 -3
10 -23 27 -43 38 l-36 20 95 -4 c69 -3 105 -9 132 -23z m-1599 -11 c-4 -11 -3
-14 5 -9 11 7 16 -7 15 -41 -1 -7 2 -11 6 -8 10 5 28 -66 27 -103 -1 -17 2
-28 5 -26 9 5 16 -26 29 -130 11 -86 10 -89 -12 -114 -42 -45 -120 -102 -130
-95 -7 3 -8 1 -4 -5 8 -13 -72 -75 -85 -66 -5 3 -9 1 -9 -5 0 -9 -111 -83
-153 -101 -12 -6 -29 -14 -37 -20 -8 -5 -51 -25 -95 -45 -44 -20 -93 -42 -110
-50 -71 -32 -79 -30 -140 38 -31 34 -66 74 -77 90 -21 29 -21 30 37 42 17 3
62 13 100 21 39 8 81 17 95 20 52 10 62 17 79 58 20 45 42 68 62 64 7 -2 13 2
14 9 0 6 15 30 34 52 25 30 37 38 43 29 6 -10 8 -8 6 4 -4 23 72 139 86 131 6
-3 8 -3 4 1 -4 4 21 40 54 79 67 80 118 151 118 164 0 11 21 33 32 33 4 0 4
-7 1 -17z m1100 -179 c0 -25 1 -43 4 -40 3 3 21 -8 40 -25 45 -39 125 -75 186
-84 38 -5 47 -10 43 -22 -3 -8 -6 -21 -6 -29 0 -36 -177 -114 -259 -114 -90 0
-241 61 -249 100 -2 12 221 255 238 259 3 1 4 -20 3 -45z m-776 -1 c-3 -10 -8
-35 -12 -55 -3 -21 -10 -38 -15 -38 -10 0 -6 44 9 83 12 30 25 37 18 10z m73
-21 c0 -5 -16 -16 -35 -25 -19 -9 -35 -13 -35 -8 0 9 30 25 43 23 4 -1 7 3 7
8 0 6 5 10 10 10 6 0 10 -4 10 -8z m1760 -6 c0 -2 -15 -13 -32 -25 l-33 -21
30 0 c17 0 48 5 70 11 84 21 307 4 385 -31 23 -10 22 -10 -10 -5 -19 3 -66 10
-105 16 -65 11 -230 8 -284 -5 -43 -10 -166 -59 -172 -69 -25 -37 34 -60 176
-70 201 -14 378 -86 444 -179 14 -21 14 -21 -19 2 -19 13 -43 32 -53 41 -51
47 -141 82 -240 95 -56 7 -104 11 -109 8 -14 -9 -9 -24 10 -31 27 -9 102 -85
102 -103 0 -31 -14 -30 -45 3 -44 46 -168 105 -261 122 -44 9 -84 22 -90 31
-9 11 -13 12 -16 3 -3 -8 -14 -2 -31 15 -23 23 -24 28 -11 33 9 3 25 1 36 -6
11 -7 23 -9 26 -6 4 4 -1 11 -11 16 -24 14 -16 24 67 76 95 62 176 98 176 79z
m754 -90 c1 -27 -6 -34 -63 -68 -36 -20 -67 -36 -68 -34 -4 4 42 75 54 86 3 3
3 -3 0 -13 -4 -11 -3 -16 4 -12 6 4 8 14 4 23 -3 9 4 38 17 64 l23 49 14 -33
c7 -18 14 -46 15 -62z m-2502 14 c-16 -10 -33 -23 -36 -29 -4 -6 -12 -11 -18
-11 -5 0 7 15 28 34 21 19 42 32 47 29 5 -3 -5 -13 -21 -23z m-1382 -5 c6 -8
8 -20 4 -26 -4 -8 -3 -9 4 -5 8 5 12 -1 12 -14 l0 -21 -26 20 c-15 12 -36 21
-48 20 -21 0 -21 0 2 -16 41 -28 28 -48 -40 -62 -58 -12 -145 -48 -136 -56 2
-2 32 5 67 15 34 11 79 20 100 20 45 0 107 -38 173 -106 l48 -49 -21 -42 c-11
-23 -28 -45 -38 -48 -21 -6 -235 21 -259 33 -9 5 -33 12 -53 16 -30 5 -39 13
-58 54 -23 46 -60 172 -61 203 0 20 89 46 215 64 50 7 93 13 96 14 4 0 12 -6
19 -14z m3466 0 c29 -4 60 -12 70 -20 18 -13 18 -14 1 -32 -9 -11 -17 -31 -17
-46 0 -29 26 -92 49 -120 27 -32 2 -30 -46 5 -74 53 -166 85 -297 103 -64 9
-76 14 -76 34 1 25 47 72 64 65 9 -4 18 0 21 8 5 12 24 14 93 12 48 -2 110 -6
138 -9z m-2165 -40 c15 -29 35 -49 54 -57 16 -6 32 -13 35 -15 7 -4 30 58 30
80 0 9 5 17 11 17 7 0 9 -9 5 -22 -3 -13 -11 -50 -17 -83 -6 -33 -14 -67 -17
-75 -7 -22 -11 -53 -18 -161 l-7 -96 34 -23 c19 -13 36 -27 39 -31 3 -4 14 -9
25 -12 17 -4 17 -5 -4 -6 -21 -1 -121 53 -121 66 0 2 6 1 13 -3 7 -5 6 0 -3
11 -8 10 -15 19 -14 19 0 1 6 11 13 24 9 16 9 22 0 22 -8 0 -7 5 2 17 13 15
12 15 -8 5 -31 -17 -47 -15 -74 9 l-24 21 25 -16 c13 -9 32 -16 41 -16 20 0
44 53 35 76 -4 11 -2 15 8 11 10 -4 13 -1 9 9 -3 9 -20 14 -47 15 -35 1 -37 2
-16 9 22 6 23 8 7 15 -12 5 -33 1 -55 -9 -31 -14 -34 -14 -17 -1 32 25 66 30
96 12 32 -18 39 -14 39 24 0 36 -32 46 -94 30 -25 -6 -51 -9 -58 -8 -7 2 -10
2 -7 0 6 -4 -1 -49 -20 -143 -11 -53 6 -90 42 -91 12 0 16 -3 9 -6 -10 -4 -8
-11 9 -29 19 -21 49 -33 49 -20 0 2 3 11 6 19 4 11 -2 17 -23 20 -23 3 -22 4
10 6 l38 1 -15 -29 c-9 -16 -12 -32 -8 -36 15 -16 -45 8 -80 32 -58 39 -69 63
-58 122 5 28 12 72 15 98 4 26 13 67 21 91 8 23 14 50 14 59 0 31 23 93 35 93
7 0 23 -20 36 -45z m319 24 c13 -9 13 -10 0 -8 -50 5 -71 -2 -82 -28 -8 -22
-12 -24 -15 -11 -8 31 15 58 50 58 18 0 39 -5 47 -11z m1201 -48 c-22 -17 -23
-23 -17 -71 7 -50 30 -110 42 -110 4 0 4 6 1 13 -12 31 11 42 85 41 108 -1
227 -43 287 -99 l46 -44 -29 -28 c-17 -17 -26 -21 -23 -12 6 17 -33 61 -63 72
-11 4 -9 7 8 12 12 4 22 11 22 16 0 14 -41 20 -120 16 -76 -4 -106 -13 -130
-41 -16 -20 -30 -20 -30 -1 0 25 -16 17 -41 -20 -13 -19 -28 -33 -34 -32 -5 2
-12 25 -15 51 l-5 48 -23 -25 c-13 -14 -29 -42 -36 -62 -8 -21 -16 -34 -19
-29 -5 10 -10 56 -8 90 1 27 28 39 49 22 13 -11 14 -7 10 36 -6 46 -40 96 -66
96 -18 0 -158 -118 -215 -180 -31 -35 -57 -59 -57 -54 0 21 103 146 152 184
64 51 203 123 248 129 3 0 -6 -8 -19 -18z m-1083 -23 c12 -6 22 -16 22 -21 0
-12 -120 1 -137 15 -13 11 -17 -2 -27 -82 -7 -55 -16 -101 -21 -110 -4 -7 43
-81 58 -91 5 -4 6 -12 3 -18 -4 -6 -3 -10 2 -9 5 2 40 -20 78 -47 38 -28 92
-61 121 -74 l51 -24 34 27 c19 14 40 26 46 26 7 0 12 5 12 10 0 6 20 20 44 32
l44 21 -14 33 c-22 51 -16 154 8 154 6 0 7 -10 4 -22 -18 -63 -18 -90 0 -124
19 -35 19 -36 -1 -50 -11 -8 -51 -37 -88 -64 -79 -58 -134 -68 -161 -28 -9 12
-16 17 -16 11 0 -20 -109 49 -148 93 -57 63 -72 83 -82 109 -10 26 8 223 22
242 11 14 111 7 146 -9z m1110 -66 c-5 -45 -28 -38 -28 8 0 37 2 41 16 30 8
-7 14 -25 12 -38z m-428 -1 c-7 -14 -20 -21 -38 -20 -24 2 -25 2 -4 6 13 3 28
16 35 30 6 14 13 21 15 15 2 -6 -2 -20 -8 -31z m271 -97 c-7 -40 -8 -70 -3
-77 10 -13 8 -139 -2 -156 -4 -6 0 -32 8 -58 20 -65 27 -283 10 -283 -26 0
-57 187 -53 320 2 49 0 92 -4 96 -4 4 -2 13 5 21 6 7 9 16 6 19 -3 2 -13 -7
-22 -21 -9 -14 -14 -25 -11 -25 3 0 -10 -30 -29 -67 -18 -38 -39 -93 -45 -123
-7 -30 -16 -68 -21 -85 -5 -16 -11 -65 -15 -108 -5 -52 -11 -77 -18 -74 -8 3
-12 40 -11 118 0 101 4 125 33 209 18 52 45 116 62 143 16 26 29 52 29 57 0 6
4 10 9 10 5 0 12 7 15 16 6 15 4 15 -11 3 -15 -12 -16 -12 -10 4 3 9 2 17 -3
17 -15 0 -150 -121 -150 -135 0 -8 -10 -22 -23 -32 -24 -19 -57 -72 -115 -183
-34 -67 -34 -55 0 38 53 144 305 439 361 424 4 -1 7 4 8 11 0 9 2 9 6 -1 3 -7
0 -42 -6 -78z m56 74 c6 -7 13 -21 16 -30 9 -26 -29 -24 -43 2 -17 32 6 55 27
28z m-443 -24 c9 -3 13 -10 10 -15 -3 -5 -10 -6 -16 -3 -7 5 -8 2 -3 -7 10
-16 12 -32 16 -109 1 -30 6 -63 10 -72 5 -10 5 -19 0 -22 -5 -4 -14 8 -20 26
-12 37 -27 208 -18 208 3 0 12 -3 21 -6z m1132 -30 c26 -14 66 -40 88 -57 l39
-31 -32 -10 c-31 -11 -68 -44 -87 -79 -9 -16 -20 -6 -82 73 -40 51 -72 98 -72
105 0 33 83 33 146 -1z m-1508 -11 c17 -9 32 -20 32 -25 0 -4 -17 1 -37 12
-49 26 -157 28 -192 3 -18 -12 -23 -13 -19 -2 2 8 14 19 25 25 30 14 152 6
191 -13z m-182 -129 c26 -21 56 -37 73 -38 37 -2 48 -12 22 -19 -29 -7 -92 25
-129 67 -33 38 -37 52 -24 83 5 13 8 9 10 -19 3 -31 12 -45 48 -74z m1380 97
c-3 -4 -19 -14 -36 -21 -22 -9 -29 -18 -25 -29 5 -13 4 -14 -6 -3 -15 14 -75
16 -83 3 -3 -5 -20 -14 -36 -20 -28 -9 -29 -9 -20 9 11 20 48 50 63 50 4 0 5
-4 2 -10 -9 -14 -3 -13 46 10 45 20 105 27 95 11z m-313 -97 c4 -4 2 -13 -5
-21 -9 -11 -7 -12 8 -6 10 3 22 11 26 17 4 6 14 4 26 -7 10 -9 24 -17 30 -17
7 0 12 -4 12 -10 0 -5 8 -10 18 -10 9 0 26 -7 36 -15 22 -17 50 -20 41 -5 -11
17 11 11 40 -12 19 -14 30 -18 32 -11 3 7 10 10 18 7 7 -3 18 4 24 15 16 29
51 47 61 31 6 -10 21 -2 56 26 34 28 44 33 36 17 -7 -12 -17 -34 -23 -50 -8
-23 -8 -26 2 -15 7 6 17 12 21 12 13 0 -19 -57 -35 -63 -20 -8 -41 9 -34 27 4
10 1 16 -8 16 -23 0 -65 -19 -65 -29 0 -6 8 -7 18 -4 16 6 16 6 0 -10 -9 -9
-21 -17 -27 -17 -16 0 -14 -6 13 -34 17 -19 33 -26 61 -26 35 0 37 -2 31 -25
-8 -33 12 -24 44 20 14 19 33 35 43 35 22 0 22 28 0 52 -15 17 -15 18 3 18 46
1 50 16 16 70 -22 36 -31 59 -26 73 5 17 11 13 40 -33 19 -30 38 -56 42 -59
18 -12 30 -47 22 -61 -4 -7 -6 -18 -4 -25 7 -17 -20 -36 -46 -33 -36 4 -35
-19 2 -56 l33 -33 -42 -47 c-44 -49 -69 -53 -59 -10 4 13 4 24 1 24 -8 0 -34
-57 -29 -63 3 -3 -14 -11 -37 -16 -24 -6 -59 -15 -78 -21 -25 -7 -39 -5 -53 5
-20 13 -20 13 0 24 12 6 28 11 37 11 9 0 23 7 31 15 18 18 2 20 -27 4 -18 -9
-19 -8 -11 8 5 10 10 37 9 59 0 34 -3 41 -17 37 -10 -3 -21 0 -24 6 -4 7 -1 8
8 5 19 -7 19 -6 4 37 -18 53 -42 64 -52 25 -9 -38 -44 -43 -73 -12 -22 25 -29
26 -71 20 -54 -9 -58 -9 -129 1 -39 6 -57 4 -69 -6 -15 -12 -16 -10 -10 26 3
22 7 48 8 58 1 10 8 15 15 13 7 -3 13 0 13 6 0 7 5 6 15 -2 8 -6 20 -8 26 -4
9 5 6 10 -9 15 -27 10 -27 32 0 89 l21 45 7 -47 c3 -26 9 -50 13 -54z m-418
78 c-6 -4 -23 -18 -40 -32 l-30 -25 29 33 c17 17 34 32 40 32 6 0 6 -3 1 -8z
m-621 -10 c3 -5 -1 -9 -9 -9 -8 0 -15 4 -15 9 0 4 4 8 9 8 6 0 12 -4 15 -8z
m101 -2 c3 -5 1 -10 -4 -10 -6 0 -11 5 -11 10 0 6 2 10 4 10 3 0 8 -4 11 -10z
m100 -9 c-3 -5 -1 -12 5 -16 19 -12 -10 -46 -57 -67 -24 -11 -47 -17 -50 -14
-3 3 7 11 23 18 44 18 64 39 64 65 0 12 5 23 11 23 5 0 8 -4 4 -9z m911 -43
c-26 -18 -37 7 -14 30 10 10 14 9 19 -5 3 -10 1 -21 -5 -25z m267 35 c4 -3 2
-12 -4 -19 -9 -10 -7 -15 5 -20 9 -3 16 -10 16 -15 0 -8 -38 8 -50 22 -3 3
-13 8 -22 12 -30 11 -20 27 15 27 19 0 37 -3 40 -7z m-2290 -30 c-3 -10 -21
-45 -42 -78 -35 -58 -38 -60 -82 -63 -25 -2 -58 2 -75 8 l-29 12 45 22 c25 12
66 34 91 49 25 15 49 24 54 19 4 -4 5 -2 1 5 -3 6 4 19 16 27 28 20 27 20 21
-1z m2171 7 c33 -12 34 -30 2 -30 -13 0 -42 -6 -64 -14 -22 -8 -43 -12 -46 -9
-14 14 -4 30 27 46 39 19 48 20 81 7z m613 -22 c-3 -8 -6 -5 -6 6 -1 11 2 17
5 13 3 -3 4 -12 1 -19z m-1830 6 c-3 -3 -12 -4 -19 -1 -8 3 -5 6 6 6 11 1 17
-2 13 -5z m28 -13 c-3 -6 -11 -11 -16 -11 -5 0 -4 6 3 14 14 16 24 13 13 -3z
m1750 -33 c27 -57 32 -88 14 -88 -6 0 -9 7 -5 15 4 12 -4 15 -41 15 -37 0 -43
3 -34 13 16 20 4 26 -30 17 -28 -8 -30 -7 -23 13 13 46 34 67 65 67 26 0 33
-6 54 -52z m19 46 c9 -3 16 -16 16 -28 0 -29 10 -39 27 -25 10 9 13 6 13 -17
0 -22 -3 -26 -10 -14 -8 12 -10 9 -10 -12 0 -16 -3 -28 -7 -28 -7 0 -53 130
-47 130 1 0 9 -3 18 -6z m-471 -33 c8 -8 7 -11 -1 -11 -7 0 -21 -9 -32 -20
l-20 -20 0 23 c0 13 -5 28 -12 35 -9 9 -4 11 22 7 18 -2 38 -9 43 -14z m184
-47 c-3 -3 -12 -4 -20 -2 -11 2 -12 9 -5 28 l10 25 11 -23 c5 -12 8 -25 4 -28z
m-802 -35 c-37 -101 -57 -186 -64 -268 l-7 -86 -13 55 c-14 54 -56 130 -72
130 -10 0 -3 22 19 68 9 17 22 32 29 32 7 0 13 10 13 23 0 40 95 125 108 96 1
-3 -4 -26 -13 -50z m965 7 c0 -3 -4 -8 -10 -11 -5 -3 -10 -1 -10 4 0 6 5 11
10 11 6 0 10 -2 10 -4z m64 -31 c-29 -26 -54 -29 -62 -7 -4 13 31 30 66 31 23
1 23 1 -4 -24z m-1915 -22 c13 -27 13 -27 -8 -9 -13 12 -30 17 -46 14 -20 -4
-23 -3 -14 8 19 24 55 17 68 -13z m1981 7 c11 -7 7 -10 -17 -10 -18 0 -33 5
-33 10 0 13 30 13 50 0z m-435 -10 c3 -5 -3 -10 -14 -10 -12 0 -21 5 -21 10 0
6 6 10 14 10 8 0 18 -4 21 -10z m-406 -22 c4 -12 6 -30 3 -40 -4 -18 -5 -18
-18 -1 -16 21 -18 63 -4 63 6 0 14 -10 19 -22z m829 1 c43 -16 21 -24 -65 -24
-86 0 -123 11 -102 32 10 10 133 5 167 -8z m-978 -4 c0 -8 -4 -15 -10 -15 -5
0 -7 7 -4 15 4 8 8 15 10 15 2 0 4 -7 4 -15z m110 -23 c0 -7 -4 -10 -10 -7 -5
3 -10 16 -10 28 0 18 2 19 10 7 5 -8 10 -21 10 -28z m72 6 c-9 -9 -12 -7 -12
12 0 19 3 21 12 12 9 -9 9 -15 0 -24z m-792 12 c0 -5 -8 -10 -17 -10 -15 0
-16 2 -3 10 19 12 20 12 20 0z m850 -6 c0 -17 -22 -14 -28 4 -2 7 3 12 12 12
9 0 16 -7 16 -16z m199 -21 c-3 -38 0 -44 20 -33 35 18 45 11 21 -15 -18 -19
-26 -22 -37 -14 -10 9 -13 7 -13 -11 0 -19 4 -22 30 -18 53 8 27 -27 -28 -38
-17 -4 -37 -13 -43 -20 -6 -8 -20 -14 -30 -14 -11 0 -19 -4 -19 -8 0 -11 -66
-42 -88 -42 -9 0 -24 12 -33 28 l-15 27 55 0 c79 0 109 19 130 80 16 46 41 95
49 95 2 0 2 -8 1 -17z m-1389 0 c0 -5 12 -9 28 -10 47 -2 303 -10 388 -12 l81
-1 -5 -26 -5 -26 -126 6 c-69 3 -164 8 -211 11 -110 6 -111 6 -98 -45 12 -47
9 -53 -33 -55 -36 -2 -36 -2 -42 93 -3 56 -1 72 9 72 8 0 14 -3 14 -7z m955
-40 c3 -27 10 -72 15 -102 14 -75 13 -79 -12 -86 -13 -4 -35 -18 -50 -32 l-26
-25 -7 21 c-10 31 5 169 22 211 31 74 50 78 58 13z m993 18 c2 -1 2 -16 0 -33
-2 -25 -7 -32 -20 -30 -11 2 -18 -3 -18 -13 0 -12 -3 -13 -19 -3 -15 9 -29 9
-63 -2 -23 -7 -46 -13 -50 -12 -4 1 -29 -5 -54 -14 -26 -9 -50 -12 -55 -7 -9
10 64 90 100 110 21 11 126 13 179 4z m-849 -43 c6 -17 10 -32 9 -32 -2 -1
-13 -7 -25 -14 -22 -11 -23 -10 -23 17 0 64 22 80 39 29z m51 -7 c0 -6 -4 -11
-10 -11 -5 0 -10 -10 -11 -22 -1 -16 -4 -12 -10 12 -11 47 -4 67 16 46 8 -8
15 -19 15 -25z m1150 29 c0 -5 -2 -10 -4 -10 -3 0 -8 5 -11 10 -3 6 -1 10 4
10 6 0 11 -4 11 -10z m-2406 -17 c-9 -10 -23 -32 -30 -50 -11 -26 -31 -40
-108 -78 -52 -25 -97 -54 -100 -63 -3 -9 -14 -53 -25 -96 l-20 -79 26 -34 27
-35 -46 28 c-53 32 -52 21 -16 176 20 85 21 87 57 99 62 20 165 79 198 115 18
19 38 34 44 34 6 0 3 -8 -7 -17z m53 -140 c-7 -155 -30 -214 -105 -262 -29
-18 -56 -29 -63 -25 -7 4 -9 3 -6 -3 4 -6 -4 -15 -17 -21 -22 -10 -29 -6 -70
38 -25 27 -46 54 -46 60 0 6 9 42 19 80 11 39 19 72 18 75 -1 3 15 14 36 25
20 11 37 17 37 14 0 -3 12 4 26 15 15 12 31 21 36 21 19 0 67 44 79 71 8 21
18 29 37 29 l25 0 -6 -117z m1241 58 c-7 -2 -14 1 -16 8 -2 6 -8 9 -12 6 -5
-3 -12 0 -16 6 -4 8 -3 9 4 5 8 -4 12 0 12 11 0 15 4 14 20 -7 12 -17 15 -26
8 -29z m48 32 c19 -25 17 -33 -6 -33 -15 0 -20 7 -20 25 0 29 8 32 26 8z m49
-3 c3 -5 1 -10 -4 -10 -6 0 -11 5 -11 10 0 6 2 10 4 10 3 0 8 -4 11 -10z
m-541 -92 c29 -84 33 -117 11 -78 -15 27 -39 96 -50 145 -12 55 13 13 39 -67z
m370 70 c7 -7 21 -29 32 -48 10 -19 24 -38 29 -42 6 -4 -1 -8 -15 -8 -14 0
-42 -3 -62 -6 -36 -6 -38 -5 -38 21 0 25 27 95 37 95 2 0 10 -6 17 -12z m636
-12 c0 -3 -4 -8 -10 -11 -5 -3 -10 -1 -10 4 0 6 5 11 10 11 6 0 10 -2 10 -4z
m-1690 -51 c0 -22 -4 -25 -40 -25 -36 0 -40 3 -40 25 0 23 4 25 40 25 36 0 40
-2 40 -25z m268 12 c21 -25 -5 -32 -125 -35 l-123 -2 0 25 0 25 119 0 c84 0
122 -4 129 -13z m1027 -6 c-6 -4 -23 -11 -40 -14 l-30 -6 30 14 c35 16 54 19
40 6z m-1321 -61 c20 0 23 -5 22 -42 l-1 -43 238 -6 c131 -4 240 -9 244 -12 3
-4 -6 -12 -21 -18 -14 -7 -28 -19 -31 -28 -4 -14 -37 -16 -260 -19 l-255 -3 0
29 c0 16 3 57 6 91 6 48 10 61 21 57 8 -4 25 -6 37 -6z m956 1 c0 -5 -10 -11
-22 -15 -36 -9 -41 -7 -28 9 13 16 50 21 50 6z m-1452 -228 c-6 -7 -17 -13
-24 -13 -8 0 -14 -5 -14 -10 0 -12 -67 -106 -114 -160 -16 -19 -27 -27 -23
-17 19 51 18 64 -9 96 l-27 33 54 49 c30 26 77 60 104 74 l50 26 7 -33 c4 -19
2 -38 -4 -45z m369 -10 c-46 -63 -94 -132 -138 -201 -49 -74 -61 -91 -81 -116
-17 -21 -17 -20 -7 12 13 39 10 43 -44 59 l-42 12 44 -5 c35 -5 42 -4 36 7 -5
8 1 6 12 -4 20 -18 21 -18 37 4 14 20 14 24 -2 36 -16 13 -15 14 4 8 17 -4 27
3 48 35 32 48 32 58 4 70 -21 9 -20 10 8 7 26 -2 37 6 83 61 61 73 88 84 38
15z m-267 -58 c0 -9 9 -26 21 -38 34 -36 61 -77 51 -77 -5 0 -27 21 -48 46
l-38 47 -23 -29 c-26 -33 -29 -50 -10 -58 6 -4 2 -4 -9 -2 -16 2 -26 -4 -35
-23 -7 -14 -21 -37 -31 -50 -23 -31 -23 -49 0 -28 11 10 22 13 32 7 8 -5 17
-7 21 -4 4 2 12 -2 18 -10 9 -11 4 -12 -30 -6 -31 6 -42 4 -46 -7 -4 -10 -8
-11 -13 -3 -9 15 -52 -56 -48 -79 4 -21 84 -60 124 -60 24 -1 33 4 37 20 3 12
10 18 16 14 6 -3 9 0 6 7 -6 15 20 56 29 47 7 -7 -66 -149 -76 -149 -5 0 -8 9
-8 20 0 11 -5 20 -12 20 -18 0 -95 39 -108 56 -17 19 -27 18 -35 -6 -4 -11
-11 -18 -16 -15 -5 3 -6 0 -3 -8 3 -8 1 -18 -5 -21 -17 -11 -20 9 -6 35 8 13
19 36 26 51 6 15 16 26 22 25 7 -1 11 5 9 14 -1 9 5 22 13 29 8 7 15 19 15 26
0 8 5 14 12 14 6 0 8 3 5 7 -4 3 1 18 10 32 9 14 22 35 28 46 51 94 105 151
105 110z m10 -135 c24 -18 24 -19 3 -14 -12 4 -28 12 -34 20 -17 20 2 17 31
-6z m-10 -111 c9 -15 8 -24 -1 -35 -17 -21 -82 -18 -110 6 l-24 20 33 -16 c40
-20 104 -12 95 11 -3 8 -9 15 -14 15 -5 0 -9 5 -9 10 0 17 19 11 30 -11z
m1807 -92 c4 -15 -20 -67 -30 -66 -7 0 -31 8 -54 17 l-43 18 21 18 c15 12 24
14 28 7 5 -8 12 -7 25 2 19 14 49 16 53 4z m-233 -45 c2 -4 -5 -26 -18 -47
-16 -29 -28 -39 -42 -37 -26 5 -27 7 -20 36 8 31 68 67 80 48z m-282 -69 c-5
-10 -7 -24 -5 -30 3 -7 0 -13 -6 -13 -6 0 -11 4 -11 9 0 5 -21 7 -47 5 -43 -3
-44 -2 -12 4 19 5 46 16 59 25 31 21 33 21 22 0z m-196 -60 c-10 -10 -19 5
-10 18 6 11 8 11 12 0 2 -7 1 -15 -2 -18z"/>
<path d="M960 4826 c0 -7 17 -35 37 -62 130 -169 243 -446 243 -593 0 -95 -54
-239 -105 -279 -47 -37 -29 -48 93 -54 l64 -3 -1 143 c-2 168 -20 329 -56 507
-50 249 -57 262 -148 305 -95 43 -127 52 -127 36z"/>
<path d="M1603 4555 c-3 -9 -1 -80 6 -158 6 -78 13 -212 15 -297 6 -180 16
-299 26 -319 8 -14 110 -51 143 -51 15 0 11 10 -21 58 -22 31 -46 80 -55 107
-25 78 -47 210 -47 283 0 88 35 212 77 274 18 28 32 52 31 54 -4 3 -161 64
-166 64 -1 0 -5 -7 -9 -15z"/>
<path d="M2083 4328 c-9 -13 -55 -121 -88 -208 -10 -25 -17 -64 -16 -88 1 -71
48 -244 91 -339 19 -41 45 -56 150 -88 l25 -7 -20 23 c-12 13 -38 44 -59 68
-76 87 -166 313 -146 366 16 42 109 163 151 195 l39 32 -22 17 c-24 18 -73 41
-87 41 -5 0 -13 -6 -18 -12z"/>
<path d="M2443 4067 c-3 -6 -1 -7 5 -3 7 4 12 3 12 -2 0 -11 -30 -26 -43 -23
-5 1 -6 -2 -3 -7 3 -5 -10 -31 -30 -58 -33 -46 -35 -53 -30 -104 3 -30 17 -90
31 -133 14 -43 22 -83 19 -89 -4 -7 -2 -8 4 -4 7 4 12 2 12 -5 0 -7 12 -36 26
-64 21 -44 32 -55 67 -68 104 -39 105 -38 27 59 -84 105 -129 194 -137 270 -6
52 -4 57 28 90 35 37 97 74 124 74 26 0 17 15 -27 47 -44 31 -74 38 -85 20z"/>
<path d="M3184 3635 c-19 -45 -18 -85 3 -115 22 -33 33 -40 64 -40 37 0 62 33
64 85 3 56 -37 105 -85 105 -26 0 -33 -6 -46 -35z m80 9 c29 -28 15 -124 -18
-124 -25 0 -51 41 -51 81 0 55 36 77 69 43z"/>
<path d="M1670 3610 c34 -11 60 -11 35 0 -11 5 -29 8 -40 8 -16 0 -15 -2 5 -8z"/>
<path d="M2298 3413 c7 -3 16 -2 19 1 4 3 -2 6 -13 5 -11 0 -14 -3 -6 -6z"/>
<path d="M2711 2918 c-34 -18 -93 -56 -129 -85 -37 -29 -93 -73 -125 -97 -66
-52 -131 -78 -248 -102 -119 -24 -173 -16 -302 45 -60 28 -112 51 -115 51 -4
0 31 -21 77 -48 46 -26 104 -66 128 -90 40 -39 44 -46 41 -84 -3 -41 -2 -42
42 -59 119 -47 319 3 417 103 23 24 65 88 93 143 40 78 69 117 128 178 42 42
72 77 66 77 -5 0 -38 -15 -73 -32z m-127 -163 c-13 -20 -19 -23 -25 -13 -6 8
-1 19 12 31 29 23 35 15 13 -18z m-56 -32 c-2 -27 -51 -83 -71 -83 -16 0 3 55
25 70 12 8 27 20 32 27 16 18 18 16 14 -14z m-88 -71 c0 -23 -8 -32 -45 -50
-35 -17 -45 -19 -45 -8 0 8 -3 21 -6 30 -4 11 3 19 22 26 16 5 36 14 44 19 24
16 30 13 30 -17z m98 -3 c-7 -13 -21 -34 -30 -47 l-17 -23 -11 21 c-13 25 -15
22 30 53 41 28 46 27 28 -4z m-204 -45 c8 -31 12 -28 -44 -42 -39 -10 -47 -9
-57 5 -21 27 -15 39 25 50 60 17 69 15 76 -13z m134 -14 c10 -28 8 -31 -36
-60 -49 -33 -57 -31 -66 15 -6 28 -3 31 41 52 27 11 49 22 50 22 0 1 6 -12 11
-29z m-357 -21 c10 -13 16 -25 14 -28 -8 -8 -61 20 -72 38 -11 17 -9 19 14 16
14 -1 34 -13 44 -26z m103 15 c13 -35 7 -44 -33 -44 -30 0 -42 5 -55 24 -15
23 -15 25 7 29 49 9 75 7 81 -9z m145 -75 c1 -23 -5 -28 -45 -38 -52 -13 -61
-9 -66 33 -3 27 1 30 47 45 56 18 63 13 64 -40z m-228 -1 c8 -13 -1 -48 -11
-48 -26 0 -40 15 -40 42 0 26 3 29 23 22 12 -4 25 -11 28 -16z m105 -13 c3
-20 4 -38 2 -41 -3 -2 -24 -2 -47 2 -34 6 -41 10 -41 30 0 21 27 37 72 43 4 1
10 -15 14 -34z"/>
<path d="M2405 2408 c-55 -24 -89 -32 -160 -36 -49 -2 -92 -6 -95 -9 -6 -6 18
-20 68 -39 40 -16 45 -16 79 0 25 12 39 14 46 7 16 -16 31 -13 18 3 -10 12 -7
18 17 30 16 8 33 12 37 8 5 -4 5 -2 1 5 -3 7 2 14 13 18 15 4 64 47 50 44 -2
-1 -35 -15 -74 -31z"/>
<path d="M1671 2524 c0 -11 3 -14 6 -6 3 7 2 16 -1 19 -3 4 -6 -2 -5 -13z"/>
<path d="M1244 2131 c-1 -34 -9 -47 -82 -117 -89 -88 -193 -214 -235 -287 -32
-55 -32 -88 0 -36 28 44 79 93 90 86 5 -3 15 -42 23 -87 8 -45 20 -86 29 -93
12 -10 14 -9 7 8 -12 31 -20 142 -11 162 5 10 7 24 6 32 -2 8 3 34 9 57 10 35
31 62 106 133 52 49 94 95 94 103 0 13 -28 78 -33 78 -1 0 -2 -17 -3 -39z"/>
<path d="M2625 1800 c3 -5 8 -10 11 -10 2 0 4 5 4 10 0 6 -5 10 -11 10 -5 0
-7 -4 -4 -10z"/>
<path d="M3906 1562 c-13 -12 -5 -22 19 -22 14 0 25 4 25 9 0 10 -36 21 -44
13z"/>
<path d="M2041 1619 c-7 -34 -15 -67 -18 -74 -3 -10 4 -13 26 -13 17 1 28 5
24 11 -4 6 5 7 23 3 21 -5 25 -4 14 4 -12 8 -9 10 13 10 16 0 36 -4 46 -9 13
-7 18 -6 18 4 0 8 -12 17 -27 20 -31 7 -75 49 -85 83 -11 37 -22 25 -34 -39z"/>
<path d="M3605 1280 c-8 -13 3 -30 20 -30 14 0 27 24 18 34 -10 9 -31 7 -38
-4z"/>
<path d="M1865 500 c3 -5 8 -10 11 -10 2 0 4 5 4 10 0 6 -5 10 -11 10 -5 0 -7
-4 -4 -10z"/>
<path d="M3120 960 c-9 -16 -8 -20 5 -20 8 0 15 9 15 20 0 11 -2 20 -5 20 -2
0 -9 -9 -15 -20z"/>
<path d="M4698 944 c-3 -3 -23 -7 -43 -10 -21 -2 -42 -7 -46 -10 -12 -7 -11
-31 3 -57 6 -12 13 -34 15 -50 1 -15 10 -38 18 -51 8 -12 13 -25 10 -28 -4 -3
3 -32 13 -64 11 -33 23 -76 27 -98 l6 -39 53 7 c29 3 67 11 85 17 31 11 33 14
27 47 -7 46 -21 60 -44 46 -19 -12 -62 -1 -62 15 0 5 -3 16 -6 25 -4 10 2 17
20 22 35 8 46 31 34 66 -9 27 -14 29 -52 26 -35 -3 -41 0 -44 18 -2 17 4 23
27 27 24 5 31 12 31 29 0 49 -11 68 -39 68 -15 0 -30 -3 -33 -6z"/>
<path d="M4436 881 c-17 -18 -17 -22 -2 -52 9 -18 16 -42 16 -53 0 -12 12 -53
26 -91 14 -39 27 -85 29 -103 4 -45 32 -85 53 -77 9 3 31 9 47 12 42 8 55 21
55 54 0 33 -15 44 -51 41 -27 -3 -33 11 -94 238 -10 36 -17 46 -37 48 -14 2
-31 -5 -42 -17z"/>
<path d="M4258 863 c-9 -2 -19 -12 -22 -21 -9 -29 -9 -114 -1 -202 9 -103 11
-127 13 -161 2 -22 7 -25 37 -26 42 -1 65 26 39 48 -13 11 -11 14 17 26 28 12
33 11 45 -4 7 -10 14 -24 14 -30 0 -18 65 -16 80 2 10 13 10 19 -4 33 -9 10
-16 22 -16 26 0 10 -42 103 -118 266 -24 50 -36 56 -84 43z m85 -236 c-2 -4
-13 -3 -23 3 -14 7 -18 21 -18 57 l1 48 22 -50 c13 -27 21 -53 18 -58z"/>
<path d="M4055 823 c-43 -9 -64 -27 -80 -69 -12 -31 -14 -48 -6 -62 6 -11 8
-21 6 -24 -6 -6 53 -67 100 -102 l38 -29 -23 -19 c-12 -10 -31 -16 -40 -13 -9
3 -23 -1 -30 -10 -10 -12 -8 -21 7 -47 20 -34 61 -54 50 -24 -8 21 2 21 18 0
10 -14 17 -15 48 -5 45 15 57 35 57 94 0 74 -16 103 -75 137 -44 25 -65 46
-65 65 0 1 16 6 36 9 36 7 36 7 29 49 -10 61 -13 63 -70 50z"/>
<path d="M3705 754 c-121 -24 -147 -37 -129 -66 4 -6 9 -27 11 -47 3 -20 9
-44 14 -53 5 -9 11 -40 14 -68 3 -29 8 -57 12 -63 4 -6 8 -20 9 -31 7 -64 20
-91 44 -94 14 -2 34 4 44 11 18 14 19 18 6 58 -22 72 -20 85 7 52 12 -15 32
-43 44 -60 23 -36 60 -44 94 -19 18 13 17 16 -19 70 -31 47 -35 59 -26 76 13
24 -1 110 -28 173 -13 31 -59 72 -74 66 -2 -1 -12 -3 -23 -5z m24 -131 c14
-50 14 -60 -4 -67 -17 -6 -31 15 -40 67 -6 33 -5 37 13 37 16 0 24 -10 31 -37z"/>
<path d="M3397 685 c-9 -8 -20 -15 -25 -15 -28 0 -54 -106 -37 -148 4 -9 9
-32 11 -51 8 -80 52 -174 78 -169 6 1 20 -3 31 -9 16 -9 30 -6 72 13 29 14 55
33 58 44 10 33 7 124 -6 170 -7 25 -12 50 -11 55 1 6 -13 35 -31 65 -31 53
-34 55 -78 58 -32 2 -51 -2 -62 -13z m73 -136 c18 -65 18 -154 0 -154 -13 0
-26 35 -34 95 -1 14 -6 42 -11 63 -6 33 -5 37 14 37 15 0 23 -10 31 -41z"/>
<path d="M3216 655 c-28 -7 -55 -11 -61 -9 -19 8 -49 -21 -39 -37 5 -8 10 -27
10 -44 2 -31 15 -105 35 -185 6 -25 12 -64 13 -87 2 -51 7 -56 47 -55 45 1 55
15 42 55 -12 33 -27 162 -17 140 3 -7 13 -13 23 -13 9 0 25 6 34 13 14 11 14
16 2 45 -12 27 -19 32 -50 32 -31 0 -35 3 -35 25 0 17 5 25 18 25 29 0 54 37
47 71 -4 16 -10 31 -13 33 -4 2 -29 -2 -56 -9z"/>
</g>
</svg>
